<?xml version="1.0" encoding="UTF-8" standalone="no"?>
<!DOCTYPE svg PUBLIC "-//W3C//DTD SVG 1.1//EN" "http://www.w3.org/Graphics/SVG/1.1/DTD/svg11.dtd">
<svg width="100%" height="100%" viewBox="0 0 591 591" version="1.1" xmlns="http://www.w3.org/2000/svg" xmlns:xlink="http://www.w3.org/1999/xlink" xml:space="preserve" xmlns:serif="http://www.serif.com/" style="fill-rule:evenodd;clip-rule:evenodd;stroke-linejoin:round;stroke-miterlimit:2;">
    <path d="M590.551,68.391C590.551,50.252 583.346,32.857 570.52,20.031C557.694,7.205 540.299,-0 522.16,-0L68.391,0C50.252,-0 32.857,7.205 20.031,20.031C7.205,32.857 -0,50.252 0,68.391L0,522.16C-0,540.299 7.205,557.694 20.031,570.52C32.857,583.346 50.252,590.551 68.391,590.551L522.16,590.551C540.299,590.551 557.694,583.346 570.52,570.52C583.346,557.694 590.551,540.299 590.551,522.16L590.551,68.391Z" style="fill:rgb(0,102,156);"/>
    <g transform="matrix(0.805109,0,0,0.805109,-120.131,163.828)">
        <g transform="matrix(266.667,0,0,266.667,244.772,260.064)">
            <path d="M0.031,-0.585L0.031,-0.727L0.646,-0.727L0.646,-0.585L0.425,-0.585L0.425,-0L0.252,-0L0.252,-0.585L0.031,-0.585Z" style="fill:white;fill-rule:nonzero;"/>
        </g>
        <g transform="matrix(266.667,0,0,266.667,425.359,260.064)">
            <path d="M0.495,-0.727L0.67,-0.727L0.67,-0.258C0.67,-0.204 0.658,-0.157 0.632,-0.117C0.606,-0.077 0.57,-0.046 0.524,-0.024C0.478,-0.002 0.424,0.009 0.363,0.009C0.301,0.009 0.247,-0.002 0.201,-0.024C0.155,-0.046 0.119,-0.077 0.093,-0.117C0.068,-0.157 0.055,-0.204 0.055,-0.258L0.055,-0.727L0.231,-0.727L0.231,-0.273C0.231,-0.248 0.236,-0.226 0.247,-0.206C0.258,-0.187 0.274,-0.171 0.294,-0.16C0.314,-0.149 0.337,-0.143 0.363,-0.143C0.389,-0.143 0.412,-0.149 0.432,-0.16C0.452,-0.171 0.467,-0.187 0.478,-0.206C0.489,-0.226 0.495,-0.248 0.495,-0.273L0.495,-0.727Z" style="fill:white;fill-rule:nonzero;"/>
        </g>
        <g transform="matrix(266.667,0,0,266.667,618.825,260.064)">
            <path d="M0.448,-0.509C0.446,-0.535 0.435,-0.556 0.417,-0.57C0.398,-0.585 0.372,-0.592 0.337,-0.592C0.315,-0.592 0.296,-0.589 0.281,-0.583C0.265,-0.577 0.254,-0.569 0.246,-0.559C0.239,-0.548 0.235,-0.537 0.235,-0.523C0.234,-0.513 0.236,-0.503 0.241,-0.495C0.246,-0.486 0.253,-0.479 0.263,-0.473C0.272,-0.467 0.283,-0.461 0.297,-0.456C0.31,-0.452 0.325,-0.447 0.341,-0.444L0.404,-0.43C0.44,-0.422 0.472,-0.411 0.499,-0.398C0.527,-0.385 0.55,-0.37 0.569,-0.352C0.588,-0.334 0.602,-0.313 0.612,-0.29C0.621,-0.266 0.626,-0.24 0.626,-0.211C0.626,-0.165 0.615,-0.126 0.592,-0.093C0.569,-0.06 0.536,-0.035 0.493,-0.017C0.45,0 0.398,0.009 0.337,0.009C0.277,0.009 0.223,0 0.178,-0.018C0.133,-0.036 0.098,-0.064 0.073,-0.101C0.048,-0.138 0.035,-0.185 0.034,-0.242L0.202,-0.242C0.204,-0.219 0.21,-0.199 0.221,-0.184C0.232,-0.168 0.248,-0.156 0.267,-0.148C0.287,-0.14 0.309,-0.136 0.335,-0.136C0.359,-0.136 0.379,-0.139 0.396,-0.146C0.412,-0.152 0.425,-0.161 0.434,-0.172C0.443,-0.184 0.448,-0.197 0.448,-0.211C0.448,-0.225 0.444,-0.237 0.435,-0.247C0.427,-0.256 0.414,-0.265 0.397,-0.272C0.38,-0.279 0.358,-0.286 0.332,-0.292L0.256,-0.31C0.193,-0.324 0.143,-0.348 0.107,-0.38C0.071,-0.412 0.053,-0.456 0.053,-0.511C0.053,-0.556 0.065,-0.596 0.089,-0.63C0.114,-0.663 0.147,-0.69 0.19,-0.709C0.233,-0.728 0.283,-0.737 0.338,-0.737C0.394,-0.737 0.443,-0.728 0.485,-0.709C0.526,-0.69 0.558,-0.663 0.581,-0.629C0.604,-0.594 0.616,-0.554 0.616,-0.509L0.448,-0.509Z" style="fill:white;fill-rule:nonzero;"/>
        </g>
    </g>
</svg>
